<svg width="512" height="512" viewBox="0 0 512 512" fill="none" xmlns="http://www.w3.org/2000/svg">
<path d="M256 160C272 96.84 332.43 64.59 464 64C466.103 63.9921 468.188 64.4005 470.132 65.2018C472.077 66.003 473.844 67.1813 475.331 68.6686C476.819 70.1559 477.997 71.9229 478.798 73.8677C479.599 75.8125 480.008 77.8966 480 80V368C480 372.243 478.314 376.313 475.314 379.314C472.313 382.314 468.243 384 464 384C336 384 286.55 409.81 256 448M256 160C240 96.84 179.57 64.59 48 64C45.8966 63.9921 43.8125 64.4005 41.8677 65.2018C39.9229 66.003 38.1559 67.1813 36.6686 68.6686C35.1813 70.1559 34.003 71.9229 33.2018 73.8677C32.4005 75.8125 31.9921 77.8966 32 80V366.07C32 375.95 38.12 384 48 384C176 384 225.63 410 256 448M256 160V448" stroke="#1DB954" stroke-width="32" stroke-linecap="round" stroke-linejoin="round"/>
</svg>
