<svg width="512" height="512" viewBox="0 0 512 512" fill="none" xmlns="http://www.w3.org/2000/svg">
<path d="M413.66 246.1H386C385.47 246.1 384.961 245.889 384.586 245.514C384.211 245.139 384 244.63 384 244.1V166.86C384 156.554 379.906 146.669 372.618 139.382C365.331 132.094 355.446 128 345.14 128H267.9C267.37 128 266.861 127.789 266.486 127.414C266.111 127.039 265.9 126.53 265.9 126V98.34C265.9 71.2 244.4 48.48 217.26 48.01C210.684 47.8945 204.152 49.0896 198.043 51.5257C191.934 53.9618 186.372 57.5901 181.68 62.1988C176.989 66.8075 173.262 72.3044 170.718 78.3687C168.173 84.4331 166.862 90.9434 166.86 97.52V126C166.86 126.53 166.649 127.039 166.274 127.414C165.899 127.789 165.39 128 164.86 128H87.62C77.1219 128.032 67.0627 132.216 59.6394 139.639C52.2161 147.063 48.0317 157.122 48 167.62V238C48 238.53 48.2107 239.039 48.5858 239.414C48.9609 239.789 49.4696 240 50 240H76.91C106.28 240 130.59 265.48 131 294.85C131.42 324.72 107.49 352 77.71 352H50C49.4696 352 48.9609 352.211 48.5858 352.586C48.2107 352.961 48 353.47 48 354V424.38C48.0317 434.878 52.2161 444.937 59.6394 452.361C67.0627 459.784 77.1219 463.968 87.62 464H158C158.53 464 159.039 463.789 159.414 463.414C159.789 463.039 160 462.53 160 462V441.07C160 410.79 184.75 384.72 215 384.01C245.1 383.31 272 404.32 272 434.29V462C272 462.53 272.211 463.039 272.586 463.414C272.961 463.789 273.47 464 274 464H345.14C355.446 464 365.331 459.906 372.618 452.618C379.906 445.331 384 435.446 384 425.14V347.14C384 346.61 384.211 346.101 384.586 345.726C384.961 345.351 385.47 345.14 386 345.14H414.48C442.11 345.14 464 322.47 464 294.74C464 267.01 440.8 246.1 413.66 246.1Z" stroke="#1DB954" stroke-width="32" stroke-linecap="round" stroke-linejoin="round"/>
</svg>
